<?xml version="1.0" encoding="UTF-8" standalone="no"?>
<!-- Generator: Adobe Illustrator 24.2.1, SVG Export Plug-In . SVG Version: 6.00 Build 0)  -->

<svg
   version="1.1"
   id="svg2"
   inkscape:version="1.4 (e7c3feb100, 2024-10-09)"
   sodipodi:docname="Square_Meter.svg"
   x="0px"
   y="0px"
   viewBox="0 0 50 50"
   style="enable-background:new 0 0 50 50;"
   xml:space="preserve"
   xmlns:inkscape="http://www.inkscape.org/namespaces/inkscape"
   xmlns:sodipodi="http://sodipodi.sourceforge.net/DTD/sodipodi-0.dtd"
   xmlns="http://www.w3.org/2000/svg"
   xmlns:svg="http://www.w3.org/2000/svg"><defs
   id="defs15" />
<style
   type="text/css"
   id="style2">
	.st0{fill:none;stroke:#000000;stroke-width:1.7644;stroke-miterlimit:10;}
	.st1{fill:none;stroke:#000000;stroke-width:1.7644;}
	.st2{fill:none;stroke:#000000;stroke-miterlimit:10;}
</style>
<sodipodi:namedview
   bordercolor="#000000"
   borderopacity="0.25"
   id="namedview34"
   inkscape:current-layer="svg2"
   inkscape:cx="25.697674"
   inkscape:cy="24.679944"
   inkscape:deskcolor="#d1d1d1"
   inkscape:lockguides="true"
   inkscape:pagecheckerboard="0"
   inkscape:pageopacity="0.0"
   inkscape:showpageshadow="2"
   inkscape:window-height="739"
   inkscape:window-maximized="0"
   inkscape:window-width="1151"
   inkscape:window-x="213"
   inkscape:window-y="0"
   inkscape:zoom="5.8954753"
   pagecolor="#ffffff"
   showgrid="false">
	</sodipodi:namedview>

<path
   class="st2"
   d="M35.8,13.6c-7.3-3.2-14.6-3.2-21.9,0l2,8.1c5.8-1.6,11.8-1.6,17.9,0L35.8,13.6z"
   id="path10"
   style="stroke-width:1;stroke-dasharray:none;fill:none;fill-opacity:1;stroke:#000000;stroke-opacity:1" />
<line
   class="st2"
   x1="30.8"
   y1="21"
   x2="32.1"
   y2="14.6"
   id="line12"
   style="stroke-width:1;stroke-dasharray:none;stroke:#000000;stroke-opacity:1" />
<style
   type="text/css"
   id="style2-7">
	.st0{fill:none;stroke:#000000;stroke-width:1.7644;stroke-miterlimit:10;}
	.st1{opacity:0.5;}
	.st2{fill:none;stroke:#000000;stroke-width:0.5;stroke-miterlimit:10;}
	.st3{fill:none;stroke:#000000;stroke-width:1.7644;}
</style><g
   id="g1617"
   transform="translate(0,-0.45)"><path
     class="st0"
     d="M 37.5,7.2 H 12 C 9.4,7.2 7.3,9.3 7.3,11.9 V 39 c 0,2.6 2.1,4.7 4.7,4.7 h 25.5 c 2.6,0 4.7,-2.1 4.7,-4.7 V 11.9 c 0,-2.6 -2.1,-4.7 -4.7,-4.7 z"
     id="path4" /><g
     id="layer1"
     transform="matrix(0,-1.135436,-1.1316024,0,53.29006,53.3859)">
	<path
   id="path2194"
   class="st3"
   d="M 25,10 V 2.9" />
	<path
   id="path2196"
   class="st3"
   d="m 25,40 v 7.1" />
</g></g></svg>
