<?xml version="1.0" encoding="UTF-8" standalone="no"?>
<!-- Generator: Adobe Illustrator 24.2.1, SVG Export Plug-In . SVG Version: 6.00 Build 0)  -->

<svg
   version="1.1"
   id="svg2"
   x="0px"
   y="0px"
   viewBox="0 0 100 100"
   style="enable-background:new 0 0 100 100;"
   xml:space="preserve"
   sodipodi:docname="Transformer.svg"
   inkscape:version="1.2.2 (b0a8486541, 2022-12-01)"
   xmlns:inkscape="http://www.inkscape.org/namespaces/inkscape"
   xmlns:sodipodi="http://sodipodi.sourceforge.net/DTD/sodipodi-0.dtd"
   xmlns="http://www.w3.org/2000/svg"
   xmlns:svg="http://www.w3.org/2000/svg"><defs
   id="defs11" /><sodipodi:namedview
   id="namedview9"
   pagecolor="#ffffff"
   bordercolor="#000000"
   borderopacity="0.25"
   inkscape:showpageshadow="2"
   inkscape:pageopacity="0.0"
   inkscape:pagecheckerboard="0"
   inkscape:deskcolor="#d1d1d1"
   showgrid="true"
   inkscape:zoom="5.2999999"
   inkscape:cx="15.09434"
   inkscape:cy="77.547171"
   inkscape:window-width="1366"
   inkscape:window-height="707"
   inkscape:window-x="0"
   inkscape:window-y="0"
   inkscape:window-maximized="1"
   inkscape:current-layer="svg2"><inkscape:grid
     type="xygrid"
     id="grid290" /></sodipodi:namedview>
<style
   type="text/css"
   id="style2">
	.st0{fill:none;stroke:#000000;}
</style>
<g
   id="g6"
   style="stroke:#000000;stroke-width:2;stroke-linecap:butt;stroke-dasharray:none;stroke-opacity:1"
   transform="matrix(1,0,0,1.0005108,0,-0.00851785)">
	<path
   id="path1318_3_"
   sodipodi:nodetypes="ccscscscscc"
   class="st0"
   d="M 0,100 H 31.1 V 86.6 77.2 c 0,0 11.5,0 11.5,-6.8 0,-6.8 -11.5,-6.8 -11.5,-6.8 0,0 11.5,0 11.5,-6.8 C 42.6,50 31.1,50 31.1,50 c 0,0 11.5,0 11.5,-6.8 0,-6.8 -11.5,-6.8 -11.5,-6.8 0,0 11.5,0 11.5,-6.8 0,-6.8 -11.5,-6.8 -11.5,-6.8 V 13.4 0 H 0"
   style="stroke:#000000;stroke-width:2;stroke-linecap:butt;stroke-dasharray:none;stroke-opacity:1" />
	<path
   id="path1318_2_"
   sodipodi:nodetypes="ccscscscscc"
   class="st0"
   d="M 100,100 H 68.9 V 86.6 77.2 c 0,0 -11.5,0 -11.5,-6.8 0,-6.8 11.5,-6.8 11.5,-6.8 0,0 -11.5,0 -11.5,-6.8 0,-6.8 11.5,-6.8 11.5,-6.8 0,0 -11.5,0 -11.5,-6.8 0,-6.8 11.5,-6.8 11.5,-6.8 0,0 -11.5,0 -11.5,-6.8 0,-6.8 11.5,-6.8 11.5,-6.8 V 13.4 0 H 100"
   style="stroke:#000000;stroke-width:2;stroke-linecap:butt;stroke-dasharray:none;stroke-opacity:1" />
</g>
</svg>
