<?xml version="1.0" encoding="UTF-8" standalone="no"?>
<svg
   height="24px"
   viewBox="0 -960 960 960"
   width="24px"
   fill="#e3e3e3"
   version="1.1"
   id="svg1"
   sodipodi:docname="flip_vertical.svg"
   inkscape:version="1.4 (e7c3feb100, 2024-10-09)"
   xmlns:inkscape="http://www.inkscape.org/namespaces/inkscape"
   xmlns:sodipodi="http://sodipodi.sourceforge.net/DTD/sodipodi-0.dtd"
   xmlns="http://www.w3.org/2000/svg"
   xmlns:svg="http://www.w3.org/2000/svg">
  <sodipodi:namedview
     id="namedview1"
     pagecolor="#ffffff"
     bordercolor="#999999"
     borderopacity="1"
     inkscape:showpageshadow="2"
     inkscape:pageopacity="0"
     inkscape:pagecheckerboard="0"
     inkscape:deskcolor="#d1d1d1"
     inkscape:zoom="21.458333"
     inkscape:cx="12.023301"
     inkscape:cy="12"
     inkscape:current-layer="svg1" />
  <defs
     id="defs1" />
  <path
     d="m 102.74485,-354.24828 v 167.66895 q 0,34.58172 24.62638,59.2081 24.62638,24.62638 59.2081,24.62638 h 586.84134 q 34.58172,0 59.2081,-24.62638 24.62638,-24.62638 24.62638,-59.2081 v -167.66895 h -83.83448 v 167.66895 H 186.57933 V -354.24828 Z M 18.910369,-438.08276 H 941.08963 v -83.83448 H 18.910369 Z m 83.834481,-167.66896 h 83.83448 v -83.83447 h -83.83448 z m 670.67582,0 h 83.83448 v -83.83447 H 773.42067 Z M 102.74485,-773.42067 h 83.83448 v -83.83448 q -34.58172,0 -59.2081,24.62638 -24.62638,24.62638 -24.62638,59.2081 z m 167.66896,0 h 83.83448 v -83.83448 h -83.83448 z m 167.66895,0 h 83.83448 v -83.83448 h -83.83448 z m 167.66895,0 h 83.83448 v -83.83448 h -83.83448 z m 167.66896,0 h 83.83448 q 0,-34.58172 -24.62638,-59.2081 -24.62638,-24.62638 -59.2081,-24.62638 z"
     id="path1"
     style="fill:#ffffff;fill-opacity:1;stroke-width:1.04794" />
</svg>
