<?xml version="1.0" encoding="UTF-8" standalone="no"?>
<svg
   height="24px"
   viewBox="0 -960 960 960"
   width="24px"
   fill="#e3e3e3"
   version="1.1"
   id="svg1"
   sodipodi:docname="flip_horizontal.svg"
   inkscape:version="1.4 (e7c3feb100, 2024-10-09)"
   xmlns:inkscape="http://www.inkscape.org/namespaces/inkscape"
   xmlns:sodipodi="http://sodipodi.sourceforge.net/DTD/sodipodi-0.dtd"
   xmlns="http://www.w3.org/2000/svg"
   xmlns:svg="http://www.w3.org/2000/svg">
  <defs
     id="defs1" />
  <sodipodi:namedview
     id="namedview1"
     pagecolor="#ffffff"
     bordercolor="#999999"
     borderopacity="1"
     inkscape:showpageshadow="2"
     inkscape:pageopacity="0"
     inkscape:pagecheckerboard="0"
     inkscape:deskcolor="#d1d1d1"
     inkscape:zoom="10.729167"
     inkscape:cx="11.650485"
     inkscape:cy="13.095145"
     inkscape:current-layer="svg1" />
  <path
     d="m 605.75172,-102.74485 h 167.66895 q 34.58172,0 59.2081,-24.62638 24.62638,-24.62638 24.62638,-59.2081 v -586.84134 q 0,-34.58172 -24.62638,-59.2081 -24.62638,-24.62638 -59.2081,-24.62638 H 605.75172 v 83.83448 h 167.66895 v 586.84134 H 605.75172 Z m -83.83448,83.834481 V -941.08963 H 438.08276 V -18.910369 Z M 354.24828,-102.74485 v -83.83448 h -83.83447 v 83.83448 z m 0,-670.67582 v -83.83448 h -83.83447 v 83.83448 z m -167.66895,670.67582 v -83.83448 h -83.83448 q 0,34.58172 24.62638,59.2081 24.62638,24.62638 59.2081,24.62638 z m 0,-167.66896 v -83.83448 h -83.83448 v 83.83448 z m 0,-167.66895 v -83.83448 h -83.83448 v 83.83448 z m 0,-167.66895 v -83.83448 h -83.83448 v 83.83448 z m 0,-167.66896 v -83.83448 q -34.58172,0 -59.2081,24.62638 -24.62638,24.62638 -24.62638,59.2081 z"
     id="path1"
     style="fill:#ffffff;fill-opacity:1;stroke-width:1.04794" />
</svg>
