<?xml version="1.0" encoding="UTF-8" standalone="no"?>
<svg
   height="24px"
   viewBox="0 -960 960 960"
   width="24px"
   fill="#e3e3e3"
   version="1.1"
   id="svg1"
   sodipodi:docname="rotate_left.svg"
   inkscape:version="1.4 (e7c3feb100, 2024-10-09)"
   xmlns:inkscape="http://www.inkscape.org/namespaces/inkscape"
   xmlns:sodipodi="http://sodipodi.sourceforge.net/DTD/sodipodi-0.dtd"
   xmlns="http://www.w3.org/2000/svg"
   xmlns:svg="http://www.w3.org/2000/svg">
  <defs
     id="defs1" />
  <sodipodi:namedview
     id="namedview1"
     pagecolor="#ffffff"
     bordercolor="#999999"
     borderopacity="1"
     inkscape:showpageshadow="2"
     inkscape:pageopacity="0"
     inkscape:pagecheckerboard="0"
     inkscape:deskcolor="#d1d1d1"
     inkscape:zoom="21.458333"
     inkscape:cx="12.023301"
     inkscape:cy="12"
     inkscape:current-layer="svg1" />
  <path
     d="m 480,-30.446604 q 188.25049,0 318.90194,-130.651466 130.65146,-130.65145 130.65146,-318.90194 0,-188.25049 -130.65146,-318.90194 Q 668.25049,-929.5534 480,-929.5534 q -96.93495,0 -185.44078,40.03834 -88.50583,40.03835 -151.72427,114.49564 V -929.5534 H 30.446602 v 393.35922 H 423.80582 V -648.58253 H 187.79029 q 44.95534,-78.67184 122.92476,-123.62719 77.96941,-44.95534 169.28495,-44.95534 140.48543,0 238.82524,98.33981 98.33981,98.3398 98.33981,238.82524 0,140.48544 -98.33981,238.82524 -98.33981,98.33981 -238.82524,98.33981 -108.17379,0 -195.27476,-61.81359 -87.10097,-61.8136 -122.22234,-162.96311 H 44.495142 Q 83.831062,-218.69709 204.64854,-124.57185 325.46601,-30.446604 480,-30.446604 Z"
     id="path1"
     style="fill:#ffffff;fill-opacity:1;stroke-width:1.40486" />
</svg>
