<?xml version="1.0" encoding="UTF-8" standalone="no"?>
<svg
   height="24"
   viewBox="0 -960 960 960"
   width="24"
   version="1.1"
   id="svg4"
   sodipodi:docname="link_web.svg"
   inkscape:version="1.2.2 (b0a8486541, 2022-12-01)"
   xmlns:inkscape="http://www.inkscape.org/namespaces/inkscape"
   xmlns:sodipodi="http://sodipodi.sourceforge.net/DTD/sodipodi-0.dtd"
   xmlns="http://www.w3.org/2000/svg"
   xmlns:svg="http://www.w3.org/2000/svg">
  <defs
     id="defs8" />
  <sodipodi:namedview
     id="namedview6"
     pagecolor="#ffffff"
     bordercolor="#000000"
     borderopacity="0.25"
     inkscape:showpageshadow="2"
     inkscape:pageopacity="0.0"
     inkscape:pagecheckerboard="0"
     inkscape:deskcolor="#d1d1d1"
     showgrid="false"
     inkscape:zoom="15.615275"
     inkscape:cx="3.9384514"
     inkscape:cy="12.295653"
     inkscape:window-width="1366"
     inkscape:window-height="715"
     inkscape:window-x="0"
     inkscape:window-y="0"
     inkscape:window-maximized="1"
     inkscape:current-layer="svg4" />
  <path
     d="M 888.96679,-4.8495348 751.77101,-142.04533 v 103.478187 h -93.0141 V -301.33196 h 262.76482 v 93.01409 H 816.88087 L 954.07666,-71.122076 Z M 472.72873,-22.289678 q -96.50212,0 -181.37748,-36.624298 Q 206.47589,-95.538275 143.69138,-158.32279 80.906863,-221.10731 44.282557,-305.98267 7.6582621,-390.85803 7.6582621,-487.36014 q 0,-96.50212 36.6242949,-181.37748 36.624306,-84.87536 99.408823,-147.65988 62.78451,-62.78451 147.65987,-99.40881 84.87536,-36.6243 181.37748,-36.6243 96.50212,0 181.37748,36.6243 84.87536,36.6243 147.65987,99.40881 62.78451,62.78452 99.40882,147.65988 36.62429,84.87536 36.62429,181.37748 0,23.25352 -2.32535,46.50704 -2.32535,23.25353 -6.97605,46.50705 h -95.33945 q 5.81338,-23.25352 8.72007,-46.50705 2.90669,-23.25352 2.90669,-46.50704 0,-23.25352 -2.90669,-46.50705 -2.90669,-23.25352 -8.72007,-46.50705 H 675.03438 q 3.48803,23.25353 5.23204,46.50705 1.74402,23.25353 1.74402,46.50705 0,23.25352 -1.74402,46.50704 -1.74401,23.25353 -5.23204,46.50705 h -93.01409 q 3.48802,-23.25352 5.23204,-46.50705 1.74402,-23.25352 1.74402,-46.50704 0,-23.25352 -1.74402,-46.50705 -1.74402,-23.25352 -5.23204,-46.50705 H 363.43717 q -3.48803,23.25353 -5.23205,46.50705 -1.744,23.25353 -1.744,46.50705 0,23.25352 1.744,46.50704 1.74402,23.25353 5.23205,46.50705 h 155.7986 v 93.01409 H 384.36534 q 13.95212,49.99507 36.04296,95.92078 22.09085,45.92572 52.32043,87.78205 23.25353,0 46.50704,-2.90669 23.25353,-2.90669 46.50705,-5.23204 v 95.33945 q -23.25352,2.325352 -46.50705,5.232043 -23.25351,2.906689 -46.50704,2.906689 z M 112.29911,-394.34605 h 158.12396 q -3.48802,-23.25352 -5.23204,-46.50705 -1.74401,-23.25352 -1.74401,-46.50704 0,-23.25352 1.74401,-46.50705 1.74402,-23.25352 5.23204,-46.50705 H 112.29911 q -5.81338,23.25353 -8.72007,46.50705 -2.90668,23.25353 -2.90668,46.50705 0,23.25352 2.90668,46.50704 2.90669,23.25353 8.72007,46.50705 z m 39.531,-279.04228 H 289.0259 q 10.46408,-43.01902 26.1602,-84.29402 15.69613,-41.27501 36.62431,-80.80599 -63.9472,20.92816 -115.10494,63.36585 -51.15776,42.43767 -84.87536,101.73416 z m 199.9803,537.15638 q -20.92818,-39.53098 -36.62431,-80.80598 -15.69612,-41.27501 -26.1602,-84.29403 H 151.83011 q 33.7176,59.29649 84.87536,101.73416 51.15774,42.43769 115.10494,63.36585 z m 32.55493,-537.15638 h 176.72677 q -13.95211,-49.99507 -36.04296,-95.92078 -22.09084,-45.92571 -52.32042,-87.78205 -30.22958,41.85634 -52.32043,87.78205 -22.09084,45.92571 -36.04296,95.92078 z m 272.06622,0 h 137.19579 q -33.71761,-59.29649 -84.87536,-101.73416 -51.15775,-42.43769 -115.10494,-63.36585 20.92817,39.53098 36.6243,80.80599 15.69612,41.275 26.16021,84.29402 z"
     id="path2"
     style="fill:#2f2721;fill-opacity:1;fill-rule:nonzero;stroke-width:1.16267" />
</svg>
