<?xml version="1.0" encoding="utf-8"?>
<!-- Generator: Adobe Illustrator 24.2.1, SVG Export Plug-In . SVG Version: 6.00 Build 0)  -->
<svg version="1.1"
	 id="svg2" inkscape:version="1.2.2 (b0a8486541, 2022-12-01)" sodipodi:docname="Double_Zero_Source.svg" xmlns:cc="http://creativecommons.org/ns#" xmlns:dc="http://purl.org/dc/elements/1.1/" xmlns:inkscape="http://www.inkscape.org/namespaces/inkscape" xmlns:rdf="http://www.w3.org/1999/02/22-rdf-syntax-ns#" xmlns:sodipodi="http://sodipodi.sourceforge.net/DTD/sodipodi-0.dtd" xmlns:svg="http://www.w3.org/2000/svg"
	 xmlns="http://www.w3.org/2000/svg" xmlns:xlink="http://www.w3.org/1999/xlink" x="0px" y="0px" viewBox="0 0 50 50"
	 style="enable-background:new 0 0 50 50;" xml:space="preserve">
<style type="text/css">
	.st0{fill:none;stroke:#000000;stroke-width:2;stroke-miterlimit:4.518;}
	.st1{fill:none;stroke:#000000;stroke-width:2;stroke-linecap:square;stroke-miterlimit:4.518;}
</style>
<sodipodi:namedview  bordercolor="#666666" borderopacity="1.0" id="base" inkscape:current-layer="g175" inkscape:cx="23.094497" inkscape:cy="23.094497" inkscape:deskcolor="#d1d1d1" inkscape:grid-bbox="true" inkscape:grid-points="true" inkscape:pagecheckerboard="0" inkscape:pageopacity="0.0" inkscape:pageshadow="2" inkscape:showpageshadow="2" inkscape:window-height="695" inkscape:window-maximized="1" inkscape:window-width="1333" inkscape:window-x="0" inkscape:window-y="0" inkscape:zoom="7.7074639" pagecolor="#ffffff" showgrid="true">
	</sodipodi:namedview>
<path id="path2194" class="st0" d="M41.9,25H50"/>
<path id="path2196" class="st0" d="M8.1,25H0"/>
<g>
	<path class="st1" d="M25,24.9c-1.4-2.2-3.2-4.2-5.4-5.9c-3.5-2.7-8.8-1.8-10.6,2.3c-1.3,2.8-1,6.2,0.8,8.7c2.1,2.9,6.4,3.5,9.4,1.5
		C21.6,29.7,23.6,27.6,25,24.9z"/>
	<path class="st1" d="M25,24.8c1.4-2.2,3.2-4.2,5.4-5.9c3.5-2.7,8.8-1.8,10.6,2.3c1.3,2.8,1,6.2-0.8,8.7c-2.1,2.9-6.4,3.5-9.4,1.5
		C28.4,29.6,26.4,27.4,25,24.8z"/>
</g>
</svg>
