<?xml version="1.0" encoding="utf-8"?>
<!-- Generator: Adobe Illustrator 24.2.1, SVG Export Plug-In . SVG Version: 6.00 Build 0)  -->
<svg version="1.1"
	 id="svg2" inkscape:version="1.2.2 (b0a8486541, 2022-12-01)" sodipodi:docname="Double_Zero_Source.svg" xmlns:cc="http://creativecommons.org/ns#" xmlns:dc="http://purl.org/dc/elements/1.1/" xmlns:inkscape="http://www.inkscape.org/namespaces/inkscape" xmlns:rdf="http://www.w3.org/1999/02/22-rdf-syntax-ns#" xmlns:sodipodi="http://sodipodi.sourceforge.net/DTD/sodipodi-0.dtd" xmlns:svg="http://www.w3.org/2000/svg"
	 xmlns="http://www.w3.org/2000/svg" xmlns:xlink="http://www.w3.org/1999/xlink" x="0px" y="0px" viewBox="0 0 50 50"
	 style="enable-background:new 0 0 50 50;" xml:space="preserve">
<style type="text/css">
	.st0{fill:none;stroke:#000000;stroke-width:2;stroke-miterlimit:4.518;}
</style>
<sodipodi:namedview  bordercolor="#666666" borderopacity="1.0" id="base" inkscape:current-layer="g175" inkscape:cx="23.094497" inkscape:cy="23.094497" inkscape:deskcolor="#d1d1d1" inkscape:grid-bbox="true" inkscape:grid-points="true" inkscape:pagecheckerboard="0" inkscape:pageopacity="0.0" inkscape:pageshadow="2" inkscape:showpageshadow="2" inkscape:window-height="695" inkscape:window-maximized="1" inkscape:window-width="1333" inkscape:window-x="0" inkscape:window-y="0" inkscape:zoom="7.7074639" pagecolor="#ffffff" showgrid="true">
	</sodipodi:namedview>
<path class="st0" d="M0,25.3h7.4l2.4-10.5c0.1-0.4,0.6-0.4,0.7,0l2.8,20c0.1,0.4,0.6,0.4,0.7,0l3.6-19.9c0.1-0.4,0.6-0.4,0.7,0
	L22,35c0.1,0.4,0.6,0.4,0.7,0l3.4-20.2c0.1-0.4,0.6-0.4,0.7,0l4,20.4c0.1,0.4,0.6,0.4,0.7,0l4.1-20.5c0.1-0.4,0.6-0.4,0.7,0l3,20.4
	c0.1,0.4,0.6,0.4,0.7,0l2.7-9.8H50"/>
</svg>
