<?xml version="1.0" encoding="UTF-8" standalone="no"?>
<svg
   viewBox="0 0 256 255.99999"
   version="1.1"
   id="svg25"
   sodipodi:docname="araña_naranja.svg"
   width="256"
   height="256"
   inkscape:export-filename="araña_naranja2.png"
   inkscape:export-xdpi="96"
   inkscape:export-ydpi="96"
   inkscape:version="1.2.2 (b0a8486541, 2022-12-01)"
   xmlns:inkscape="http://www.inkscape.org/namespaces/inkscape"
   xmlns:sodipodi="http://sodipodi.sourceforge.net/DTD/sodipodi-0.dtd"
   xmlns="http://www.w3.org/2000/svg"
   xmlns:svg="http://www.w3.org/2000/svg">
  <sodipodi:namedview
     id="namedview27"
     pagecolor="#ffffff"
     bordercolor="#000000"
     borderopacity="0.25"
     inkscape:showpageshadow="2"
     inkscape:pageopacity="0.0"
     inkscape:pagecheckerboard="0"
     inkscape:deskcolor="#d1d1d1"
     showgrid="false"
     inkscape:zoom="0.84300099"
     inkscape:cx="310.79441"
     inkscape:cy="125.14813"
     inkscape:window-width="1366"
     inkscape:window-height="707"
     inkscape:window-x="0"
     inkscape:window-y="0"
     inkscape:window-maximized="1"
     inkscape:current-layer="svg25" />
  <defs
     id="defs4">
    <style
       id="style2">.cls-1{fill:#e5723a;}</style>
  </defs>
  <g
     id="Capa_2"
     data-name="Capa 2"
     style="fill:#df8f62;fill-opacity:1"
     transform="matrix(0.41132354,0,0,0.40803444,-0.03724491,0.0620432)">
    <path
       class="cls-1"
       d="m 595.1,297 -30.23,37 -41.87,4.89 -65.36,-21.68 68.12,-14.21 85,-69.7 -15.6,-86.37 c -3.38,-20.73 -32.14,-16 -28.77,4.68 L 579.12,222.24 512,276.43 459.29,287 427.84,307.34 h -0.1 l -6,4 2.67,36.3 4.05,118.5 L 322,578 268.4,598.32 c -26.74,7.86 -17.67,34.2 1,28.34 l 69,-25.93 119.5,-122.53 -2.94,-85.95 31.89,36 1.57,52.75 -31.9,72.9 c -11.48,24.33 15.21,36.92 26.69,12.59 l 34.59,-81.52 -2.33,-68.32 -62.1,-70.05 68,22 57.88,-7.27 38,-45.84 c 15.13,-18.17 -7,-36.64 -22.15,-18.49 z"
       id="path6"
       style="fill:#df8f62;fill-opacity:1" />
    <path
       class="cls-1"
       d="m 468.93,21.83 -86.86,-12.65 -66.75,87.39 -11.92,68.59 -23.9,-64.58 3.42,-42 36,-31.48 C 336.55,11.33 317.33,-10.15 299.71,5.62 l -44.53,39.5 -5.28,58.09 24.3,67.19 -72.13,-59.67 h -68.35 l -80.3,37.36 C 29.5,160.39 43,186.63 66.92,174.32 l 71.76,-34.32 52.82,-0.19 37.05,30.63 h -86 L 24.17,294 0.61,363.85 c -5.22,18.83 21.41,27 28.35,0 L 47.44,309.6 155.63,199.34 H 274.2 l 36.37,1.43 3.76,-6.09 v -0.11 l 19.26,-32.12 8.75,-53 51.91,-69 71,10.31 c 20.82,2.64 24.51,-26.27 3.68,-28.93 z"
       id="path8"
       style="fill:#df8f62;fill-opacity:1" />
    <path
       class="cls-1"
       d="m 448.36,131 20.15,3.78 c 4.19,-7.11 9.19,-13.17 19,-17.56 a 2.91,2.91 0 0 0 -1.08,-5.58 c -17.57,-0.47 -27.99,6.09 -38.07,19.36 z"
       id="path10"
       style="fill:#df8f62;fill-opacity:1" />
    <path
       class="cls-1"
       d="M 490.82,172.79 487,152.64 c 7.23,-4.27 13.38,-9.37 17.79,-19.57 a 2.79,2.79 0 0 1 5.34,1 c 0.63,18 -5.92,28.53 -19.31,38.72 z"
       id="path12"
       style="fill:#df8f62;fill-opacity:1" />
    <path
       class="cls-1"
       d="m 468.77,262.1 c 16.62,-39.85 19.78,-78.33 6,-115.06 -36.72,-15.12 -75,-13.21 -114.72,3.55 l -35.37,60.61 85.79,85.2 z"
       id="path14"
       style="fill:#df8f62;fill-opacity:1" />
    <circle
       class="cls-1"
       cx="185.39"
       cy="318.60001"
       r="16.110001"
       id="circle16"
       style="fill:#df8f62;fill-opacity:1" />
    <circle
       class="cls-1"
       cx="323.22"
       cy="415.57001"
       r="16.110001"
       id="circle18"
       style="fill:#df8f62;fill-opacity:1" />
    <circle
       class="cls-1"
       cx="220.55"
       cy="400.75"
       r="16.110001"
       id="circle20"
       style="fill:#df8f62;fill-opacity:1" />
    <path
       class="cls-1"
       d="M 400.87,310.77 306,216.8 c -62.22,-7.17 -110.54,0.35 -145.92,21.54 L 84.65,317.19 C 58.53,369.49 53.59,421.78 66.84,474.07 L 130.2,411 122.88,367.51 155.3,335.69 a 34.56,34.56 0 1 1 14.15,13.65 l -25.73,26.06 7.95,41.46 -78.45,78.45 A 296.29,296.29 0 0 0 84.47,523 L 190.36,416.84 a 34.25,34.25 0 1 1 13.33,13.67 L 101,535 a 163.39,163.39 0 0 0 27.33,13.29 l 86.48,-85.76 45.69,2.47 31.93,-33.39 a 34.62,34.62 0 1 1 13.66,14.15 l -37.28,38.71 -45.61,-3.79 -73.83,74.2 c 47.78,11.88 104.22,6.72 155.24,-16.85 l 80.57,-76.28 C 411.51,412 416.25,361.68 400.87,310.77 Z"
       id="path22"
       style="fill:#df8f62;fill-opacity:1" />
  </g>
</svg>
