<?xml version="1.0" encoding="utf-8"?>
<!-- Generator: Adobe Illustrator 24.2.1, SVG Export Plug-In . SVG Version: 6.00 Build 0)  -->
<svg version="1.1"
	 id="svg2" xmlns:cc="http://creativecommons.org/ns#" xmlns:dc="http://purl.org/dc/elements/1.1/" xmlns:inkscape="http://www.inkscape.org/namespaces/inkscape" xmlns:rdf="http://www.w3.org/1999/02/22-rdf-syntax-ns#" xmlns:sodipodi="http://sodipodi.sourceforge.net/DTD/sodipodi-0.dtd" xmlns:svg="http://www.w3.org/2000/svg"
	 xmlns="http://www.w3.org/2000/svg" xmlns:xlink="http://www.w3.org/1999/xlink" x="0px" y="0px" viewBox="0 0 100 100"
	 style="enable-background:new 0 0 100 100;" xml:space="preserve">
<style type="text/css">
	.st0{fill:none;stroke:#000000;}
</style>
<g>
	<path id="path1318_3_" sodipodi:nodetypes="ccscscscscc" class="st0" d="M0,100h31.1l0-13.4v-9.4c0,0,11.5,0,11.5-6.8
		s-11.5-6.8-11.5-6.8s11.5,0,11.5-6.8S31.1,50,31.1,50s11.5,0,11.5-6.8s-11.5-6.8-11.5-6.8s11.5,0,11.5-6.8s-11.5-6.8-11.5-6.8v-9.4
		V0H0"/>
	<path id="path1318_2_" sodipodi:nodetypes="ccscscscscc" class="st0" d="M100,100H68.9V86.6v-9.4c0,0-11.5,0-11.5-6.8
		s11.5-6.8,11.5-6.8s-11.5,0-11.5-6.8S68.9,50,68.9,50s-11.5,0-11.5-6.8s11.5-6.8,11.5-6.8s-11.5,0-11.5-6.8s11.5-6.8,11.5-6.8v-9.4
		V0H100"/>
</g>
</svg>
