<?xml version="1.0" encoding="UTF-8" standalone="no"?>
<!-- Generator: Adobe Illustrator 24.2.1, SVG Export Plug-In . SVG Version: 6.00 Build 0)  -->

<svg
   version="1.1"
   id="svg2"
   sodipodi:docname="Oscilloscope_Triangles.svg"
   x="0px"
   y="0px"
   viewBox="0 0 50 50"
   style="enable-background:new 0 0 50 50;"
   xml:space="preserve"
   inkscape:version="1.2.2 (b0a8486541, 2022-12-01)"
   xmlns:inkscape="http://www.inkscape.org/namespaces/inkscape"
   xmlns:sodipodi="http://sodipodi.sourceforge.net/DTD/sodipodi-0.dtd"
   xmlns="http://www.w3.org/2000/svg"
   xmlns:svg="http://www.w3.org/2000/svg"><defs
   id="defs36" /><sodipodi:namedview
   id="namedview34"
   pagecolor="#ffffff"
   bordercolor="#000000"
   borderopacity="0.25"
   inkscape:showpageshadow="2"
   inkscape:pageopacity="0.0"
   inkscape:pagecheckerboard="0"
   inkscape:deskcolor="#d1d1d1"
   showgrid="false"
   inkscape:zoom="10.36"
   inkscape:cx="14.044402"
   inkscape:cy="25"
   inkscape:window-width="1333"
   inkscape:window-height="695"
   inkscape:window-x="0"
   inkscape:window-y="0"
   inkscape:window-maximized="1"
   inkscape:current-layer="svg2" />
<style
   type="text/css"
   id="style2">
	.st0{fill:none;stroke:#000000;stroke-width:1.7644;stroke-miterlimit:10;}
	.st1{opacity:0.5;}
	.st2{fill:none;stroke:#000000;stroke-width:0.5;stroke-miterlimit:10;}
	.st3{fill:none;stroke:#000000;stroke-width:1.7644;}
</style>

<g
   class="st1"
   id="g26">
	<rect
   x="11.3"
   y="16.3"
   class="st2"
   width="27.4"
   height="17.4"
   id="rect6" />
	<g
   id="g24">
		<line
   class="st2"
   x1="16.2"
   y1="16.3"
   x2="16.2"
   y2="33.7"
   id="line8" />
		<line
   class="st2"
   x1="20.6"
   y1="16.3"
   x2="20.6"
   y2="33.7"
   id="line10" />
		<line
   class="st2"
   x1="25"
   y1="16.3"
   x2="25"
   y2="33.7"
   id="line12" />
		<line
   class="st2"
   x1="29.5"
   y1="16.3"
   x2="29.5"
   y2="33.7"
   id="line14" />
		<line
   class="st2"
   x1="33.9"
   y1="16.3"
   x2="33.9"
   y2="33.7"
   id="line16" />
		<line
   class="st2"
   x1="11.3"
   y1="21.1"
   x2="38.7"
   y2="21.1"
   id="line18" />
		<line
   class="st2"
   x1="11.3"
   y1="25"
   x2="38.7"
   y2="25"
   id="line20" />
		<line
   class="st2"
   x1="38.7"
   y1="29.6"
   x2="11.3"
   y2="29.6"
   id="line22" />
	</g>
</g>

<path
   class="st0"
   d="M11.3,25l2.9,4.4c0.1,0.1,0.2,0.1,0.2,0l4.8-8.1c0-0.1,0.2-0.1,0.2,0l5.5,8.2c0.1,0.1,0.2,0.1,0.2,0l5.6-8.2  c0.1-0.1,0.2-0.1,0.2,0l4.6,8.1c0,0.1,0.2,0.1,0.2,0l2.9-4.4"
   id="path31" />
</svg>
