<?xml version="1.0" encoding="UTF-8" standalone="no"?>
<!-- Generator: Adobe Illustrator 24.2.1, SVG Export Plug-In . SVG Version: 6.00 Build 0)  -->

<svg
   version="1.1"
   id="svg2"
   x="0px"
   y="0px"
   viewBox="0 0 100 100"
   style="enable-background:new 0 0 100 100;"
   xml:space="preserve"
   sodipodi:docname="Transformer.svg"
   inkscape:version="1.4 (e7c3feb100, 2024-10-09)"
   xmlns:inkscape="http://www.inkscape.org/namespaces/inkscape"
   xmlns:sodipodi="http://sodipodi.sourceforge.net/DTD/sodipodi-0.dtd"
   xmlns="http://www.w3.org/2000/svg"
   xmlns:svg="http://www.w3.org/2000/svg"><defs
   id="defs11" /><sodipodi:namedview
   id="namedview9"
   pagecolor="#ffffff"
   bordercolor="#000000"
   borderopacity="0.25"
   inkscape:showpageshadow="2"
   inkscape:pageopacity="0.0"
   inkscape:pagecheckerboard="0"
   inkscape:deskcolor="#d1d1d1"
   showgrid="true"
   inkscape:zoom="3.7476659"
   inkscape:cx="50.698223"
   inkscape:cy="49.230643"
   inkscape:window-width="1151"
   inkscape:window-height="739"
   inkscape:window-x="-2"
   inkscape:window-y="0"
   inkscape:window-maximized="0"
   inkscape:current-layer="g6"><inkscape:grid
     type="xygrid"
     id="grid290"
     originx="0"
     originy="0"
     spacingy="1"
     spacingx="1"
     units="px" /></sodipodi:namedview>
<style
   type="text/css"
   id="style2">
	.st0{fill:none;stroke:#000000;}
</style>
<g
   id="g6"
   style="stroke:#000000;stroke-width:2;stroke-linecap:butt;stroke-dasharray:none;stroke-opacity:1"
   transform="matrix(1,0,0,1.0005108,0,-0.00851785)">
	
	<g
   id="g1"
   transform="translate(4.8029895,4.7860254)"><path
     id="path1318_3_"
     sodipodi:nodetypes="ccscscscscccccc"
     class="st0"
     d="M 0,88.587014 H 28.112541 V 78.281173 69.784135 c 0,0 10.395312,0 10.395312,-6.146793 0,-6.146794 -10.395312,-6.146794 -10.395312,-6.146794 0,0 10.395312,0 10.395312,-6.146793 0,-6.146794 -10.395312,-6.146794 -10.395312,-6.146794 0,0 10.395312,0 10.395312,-6.146793 0,-6.146793 -10.395312,-6.146793 -10.395312,-6.146793 0,0 10.395312,0 10.395312,-6.146794 0,-6.146793 -10.395312,-6.146793 -10.395312,-6.146793 V 12.11275 1.8069083 H 0"
     style="stroke:#000000;stroke-width:3.61484;stroke-linecap:butt;stroke-dasharray:none;stroke-opacity:1" /><path
     id="path1318_2_"
     sodipodi:nodetypes="ccscscscscccccc"
     class="st0"
     d="M 90.394021,88.587014 H 62.28148 V 78.281173 69.784135 c 0,0 -10.395312,0 -10.395312,-6.146793 0,-6.146794 10.395312,-6.146794 10.395312,-6.146794 0,0 -10.395312,0 -10.395312,-6.146793 0,-6.146794 10.395312,-6.146794 10.395312,-6.146794 0,0 -10.395312,0 -10.395312,-6.146793 0,-6.146793 10.395312,-6.146793 10.395312,-6.146793 0,0 -10.395312,0 -10.395312,-6.146794 0,-6.146793 10.395312,-6.146793 10.395312,-6.146793 V 12.11275 1.8069083 h 28.112541"
     style="stroke:#000000;stroke-width:3.61484;stroke-linecap:butt;stroke-dasharray:none;stroke-opacity:1" /></g>
</g>
</svg>
