<?xml version="1.0" encoding="UTF-8" standalone="no"?>
<!-- Generator: Adobe Illustrator 24.2.1, SVG Export Plug-In . SVG Version: 6.00 Build 0)  -->

<svg
   version="1.1"
   id="svg2"
   x="0px"
   y="0px"
   viewBox="0 0 100 100"
   style="enable-background:new 0 0 100 100;"
   xml:space="preserve"
   sodipodi:docname="Transformer_Core.svg"
   inkscape:version="1.4 (e7c3feb100, 2024-10-09)"
   xmlns:inkscape="http://www.inkscape.org/namespaces/inkscape"
   xmlns:sodipodi="http://sodipodi.sourceforge.net/DTD/sodipodi-0.dtd"
   xmlns="http://www.w3.org/2000/svg"
   xmlns:svg="http://www.w3.org/2000/svg"><defs
   id="defs15" /><sodipodi:namedview
   id="namedview13"
   pagecolor="#ffffff"
   bordercolor="#000000"
   borderopacity="0.25"
   inkscape:showpageshadow="2"
   inkscape:pageopacity="0.0"
   inkscape:pagecheckerboard="0"
   inkscape:deskcolor="#d1d1d1"
   showgrid="true"
   inkscape:zoom="3.7476659"
   inkscape:cx="40.425161"
   inkscape:cy="46.295482"
   inkscape:window-width="1151"
   inkscape:window-height="739"
   inkscape:window-x="-2"
   inkscape:window-y="0"
   inkscape:window-maximized="0"
   inkscape:current-layer="svg2"><inkscape:grid
     type="xygrid"
     id="grid292"
     originx="0"
     originy="0"
     spacingy="1"
     spacingx="1"
     units="px" /></sodipodi:namedview>
<style
   type="text/css"
   id="style2">
	.st0{fill:none;stroke:#000000;}
</style>
<g
   id="g6"
   style="stroke:#000000;stroke-width:3.99894;stroke-dasharray:none;stroke-opacity:1"
   transform="matrix(0.90127188,0,0,0.90174803,4.936406,4.9125985)">
	<path
   id="path1318_3_"
   sodipodi:nodetypes="ccscscscscccccc"
   class="st0"
   d="M 0,98.001056 H 31.1 V 86.6 77.2 c 0,0 11.5,0 11.5,-6.8 0,-6.8 -11.5,-6.8 -11.5,-6.8 0,0 11.5,0 11.5,-6.8 C 42.6,50 31.1,50 31.1,50 c 0,0 11.5,0 11.5,-6.8 0,-6.8 -11.5,-6.8 -11.5,-6.8 0,0 11.5,0 11.5,-6.8 0,-6.8 -11.5,-6.8 -11.5,-6.8 V 13.4 1.998944 H 0"
   style="stroke:#000000;stroke-width:3.99894;stroke-dasharray:none;stroke-opacity:1" />
	<path
   id="path1318_2_"
   sodipodi:nodetypes="ccscscscscccccc"
   class="st0"
   d="M 100,98.001056 H 68.9 V 86.6 77.2 c 0,0 -11.5,0 -11.5,-6.8 0,-6.8 11.5,-6.8 11.5,-6.8 0,0 -11.5,0 -11.5,-6.8 0,-6.8 11.5,-6.8 11.5,-6.8 0,0 -11.5,0 -11.5,-6.8 0,-6.8 11.5,-6.8 11.5,-6.8 0,0 -11.5,0 -11.5,-6.8 0,-6.8 11.5,-6.8 11.5,-6.8 V 13.4 1.998944 H 100"
   style="stroke:#000000;stroke-width:3.99894;stroke-dasharray:none;stroke-opacity:1" />
</g>
<line
   class="st0"
   x1="53"
   y1="24.5"
   x2="53"
   y2="75.5"
   id="line8"
   style="stroke-width:4;stroke-dasharray:none;stroke:#010100;stroke-opacity:1" />
<line
   class="st0"
   x1="47"
   y1="24.5"
   x2="47"
   y2="75.5"
   id="line10"
   style="stroke-width:4;stroke-dasharray:none;stroke:#000000;stroke-opacity:1" />
</svg>
